<svg xmlns="http://www.w3.org/2000/svg" width="20px" height="20px" viewBox="0 0 24 24" fill="none" stroke="currentColor" stroke-width="1.5" stroke-linecap="round" stroke-linejoin="round" class="tabler-icon tabler-icon-sitemap" style="color: rgb(54, 65, 82);"><path d="M3 15m0 2a2 2 0 0 1 2 -2h2a2 2 0 0 1 2 2v2a2 2 0 0 1 -2 2h-2a2 2 0 0 1 -2 -2z"></path><path d="M15 15m0 2a2 2 0 0 1 2 -2h2a2 2 0 0 1 2 2v2a2 2 0 0 1 -2 2h-2a2 2 0 0 1 -2 -2z"></path><path d="M9 3m0 2a2 2 0 0 1 2 -2h2a2 2 0 0 1 2 2v2a2 2 0 0 1 -2 2h-2a2 2 0 0 1 -2 -2z"></path><path d="M6 15v-1a2 2 0 0 1 2 -2h8a2 2 0 0 1 2 2v1"></path><path d="M12 9l0 3"></path></svg>