<svg xmlns="http://www.w3.org/2000/svg" width="20px" height="20px" viewBox="0 0 24 24" fill="none" stroke="currentColor" stroke-width="1.5" stroke-linecap="round" stroke-linejoin="round" class="tabler-icon tabler-icon-shape" style="color: rgb(54, 65, 82);"><path d="M5 5m-2 0a2 2 0 1 0 4 0a2 2 0 1 0 -4 0"></path><path d="M19 5m-2 0a2 2 0 1 0 4 0a2 2 0 1 0 -4 0"></path><path d="M5 19m-2 0a2 2 0 1 0 4 0a2 2 0 1 0 -4 0"></path><path d="M19 19m-2 0a2 2 0 1 0 4 0a2 2 0 1 0 -4 0"></path><path d="M5 7l0 10"></path><path d="M7 5l10 0"></path><path d="M7 19l10 0"></path><path d="M19 7l0 10"></path></svg>